<svg id="Layer_1" data-name="Layer 1" xmlns="http://www.w3.org/2000/svg" viewBox="0 0 265.12 265.12"><defs><style>.cls-1{fill:#231f20;}.cls-2{fill:none;stroke:#231f20;stroke-miterlimit:10;stroke-width:10px;}</style></defs><title>SRNETLogo</title><path class="cls-1" d="M61.94,157.41q0,13.46-6.21,23.06-5.44,8.49-13.25,10.8a2,2,0,0,1-.48.07q-.82,0-3.7-9.31t-2.87-11.37a.87.87,0,0,1,.55-.93q5.27-2.17,7-3.71,3.78-3.45,3.77-10.2a23.11,23.11,0,0,0-2.46-9.61q-4.29-9-4.65-10A44.38,44.38,0,0,1,37.1,121q0-12.13,6.14-20.15a22.71,22.71,0,0,1,12.31-8.62,4.37,4.37,0,0,1,.61-.06q.56,0,.87,1.59.94,4.83,4.4,17.49a2.8,2.8,0,0,1,.11.67c0,.75-.22,1.12-.66,1.12a3.83,3.83,0,0,1-1-.2,4.29,4.29,0,0,0-1-.2,6,6,0,0,0-4.57,2.19,9.85,9.85,0,0,0-2.36,7,25.63,25.63,0,0,0,2.61,9.94l4.83,11.13A43.29,43.29,0,0,1,61.94,157.41Z" transform="translate(-9.17 -9.17)"/><path class="cls-1" d="M111.24,187.23c0,.31-.25.53-.73.66a34.15,34.15,0,0,1-6.93.4,33.65,33.65,0,0,1-6.47-.4,2.26,2.26,0,0,1-.9-.33,3.27,3.27,0,0,1-.51-1.32c-.36-1.73-.9-4.29-1.6-7.69q-1.41-6.63-4.43-19.55a3.34,3.34,0,0,0-3-2.85c.72.09-.52.13-3.74.13-.36,0-.55,1.13-.55,3.38q0,4.5.46,13.45t.45,13.46c0,.75-.11,1.19-.32,1.32l-1,.13a59.17,59.17,0,0,1-6.68.27q-5.19,0-6.25-.4c-.7-.26-1.05-.95-1.05-2q0-7.29.38-22t.38-22.06q0-28-.69-43.75l0-.92a1.47,1.47,0,0,1,1.14-1.53c.79-.26,4.49-.53,11.09-.79q6.72-.27,10.71-.27a16.28,16.28,0,0,1,13.51,6.83q5.91,7.68,5.92,22.2A62.39,62.39,0,0,1,108.84,139a32.21,32.21,0,0,1-5.63,11.2,3.33,3.33,0,0,0-.83,2s1.47,5.5,4.43,16.64S111.24,186.08,111.24,187.23ZM96,127.78q0-8.09-2.91-11.2c-1.5-1.59-3.84-2.38-7-2.38-2.3,0-3.52.64-3.67,1.92q-.21,2.25-.21,13c0,1,0,2.52,0,4.5s0,3.47,0,4.44c0,.22.39.45,1.16.67a18.18,18.18,0,0,0,4.65.59Q96,139.31,96,127.78Z" transform="translate(-9.17 -9.17)"/><path class="cls-1" d="M163.91,97q0,7.56-.34,22.7t-.35,22.77V186.1c0,1.2-.35,1.79-1.05,1.79s-1.46.05-2.63.13-2,.14-2.63.14a21.79,21.79,0,0,1-2.83-.27,23.57,23.57,0,0,0-2.84-.26q-.65,0-1.56-2.19-2.61-6.44-11.76-28.5-2.5-6.16-7.62-18.16a2.23,2.23,0,0,0-.55-.79,2.86,2.86,0,0,0-.29,1.46q0,7.68.24,23.06t.23,23.06c0,1.55-.32,2.32-1,2.32H116.39c-.7,0-1-.68-1-2q0-7.16.38-21.61t.38-21.67q0-7.62-.34-22.8T115.41,97a1.27,1.27,0,0,1,1.42-1.46A30.91,30.91,0,0,0,122,95a25.33,25.33,0,0,0,2.87-.86,9.75,9.75,0,0,1,2.87-.6c.29,0,.73.76,1.34,2.26l13.54,33.86q1.81,4.58,5.48,13.39c.61,1.37,1.13,2.06,1.56,2.06s.47-1.73.47-5.17q0-7-.41-20.95t-.42-21c0-1.63.25-2.45.76-2.45q2.17,0,6.57-.33t6.57-.33C163.68,94.91,163.91,95.59,163.91,97Z" transform="translate(-9.17 -9.17)"/><path class="cls-1" d="M207.84,167.28q0,2.85-.61,10.47-.66,8.3-1.17,9.88c-.29.84-.69,1.26-1.19,1.26a5.09,5.09,0,0,1-1.09-.2q-2.66-.66-15.47-.67-2.79,0-8.31-.06t-8.28-.07q-1.2,0-1.2-1.92,0-7.42.46-22.3t.45-22.3q0-7.56-.44-28.17-.11-5.3-.4-15.84l0-.93c-.05-1,.25-1.52.91-1.52q2.68,0,8.07.26t8.08.27q2.65,0,8-.27t8-.26c1.26,0,2,.86,2.18,2.58q.18,1.53.57,9.25c.25,5.15.38,8.27.38,9.38,0,.93-.24,1.39-.73,1.39a6.25,6.25,0,0,1-.76-.07A117.69,117.69,0,0,0,187.88,116a2.15,2.15,0,0,0-2.36,1.66,35.35,35.35,0,0,0-.19,5.1c0,3,.25,5,.73,6a2.38,2.38,0,0,0,2.36,1.26c.24,0,.71,0,1.42-.1s1.28-.1,1.74-.1c3,0,6.13-.15,9.26-.46l2-.34a10.45,10.45,0,0,1,2-.26c.58,0,.87.51.87,1.52q0-1.38-.65,10.14c-.19,3.54-.29,7.07-.29,10.61q0,1.32-1.05,1.32l-3.27-.66a67.15,67.15,0,0,0-9.44-.4h-3.85a1.55,1.55,0,0,0-1.74,1.33c0,.22,0,1.59,0,4.11a33.87,33.87,0,0,0,.37,6.49c.41,1.68,2,2.68,4.64,3h5.3a38.15,38.15,0,0,0,5.72-.63,39.35,39.35,0,0,1,5.68-.62C207.58,164.9,207.84,165.69,207.84,167.28Z" transform="translate(-9.17 -9.17)"/><path class="cls-1" d="M248,115.19c0,.88-.26,1.32-.8,1.32q-1.38,0-10.92-1-.23,16.77-.22,23.4,0,7.82.34,23.52t.35,23.53a2.47,2.47,0,0,1-.33,1.59,2.62,2.62,0,0,1-1,.33,28.48,28.48,0,0,1-6.39.53,27.36,27.36,0,0,1-6.57-.53c-.67-.22-1-.9-1-2q0-7.83.36-23.46t.36-23.46q0-5.17-.29-23.07a67.5,67.5,0,0,1-11.58,1.33c-.39,0-.58-.22-.58-.67s.17-2.27.51-5.1c.39-3.09.6-5,.65-5.63.07-2.08.16-4.15.26-6.23.17-3.32.46-5,.87-5l.51.06Q218.41,96,229.92,96A102.56,102.56,0,0,0,242,94.78l4.75-.67c.49,0,.77.06.84.17a4.13,4.13,0,0,1,.14,1.29c0,1.2,0,2.85-.07,5,0,2.34-.07,4-.07,5s.08,2.73.24,4.87S248,114.13,248,115.19Z" transform="translate(-9.17 -9.17)"/><circle class="cls-2" cx="132.56" cy="132.56" r="127.56"/></svg>